<?xml version="1.0" encoding="utf-8"?>
<!-- Generator: Adobe Illustrator 26.0.0, SVG Export Plug-In . SVG Version: 6.00 Build 0)  -->
<svg version="1.1" id="Layer_1" xmlns="http://www.w3.org/2000/svg" xmlns:xlink="http://www.w3.org/1999/xlink" x="0px" y="0px"
	 viewBox="0 0 16 16" style="enable-background:new 0 0 16 16;" xml:space="preserve">
<style type="text/css">
	.st0{fill:#FFFFFF;}
	.st1{fill:#E94B35;}
	.st2{fill:#227FBB;}
</style>
<path class="st0" d="M0,2.7h16v10.7H0V2.7z"/>
<path class="st1" d="M8,2.7h8v0.8H8V2.7z M8,5.9h8v0.8H8V5.9z M0,9.2v0.8h16V9.2H0z M8,4.3h8v0.8H8V4.3z M8,7.6v0.8h8V7.6H8z
	 M0,10.9h16v0.8H0V10.9z M0,12.5h16v0.8H0V12.5z"/>
<path class="st2" d="M0,2.7h8v5.8H0V2.7z"/>
<path class="st0" d="M0.7,3.7L0.5,3.8l0-0.2L0.3,3.4l0.2,0l0.1-0.2l0.1,0.2l0.2,0L0.8,3.6l0,0.2L0.7,3.7z M2,3.7L1.8,3.8l0-0.2
	L1.7,3.4l0.2,0L2,3.2l0.1,0.2l0.2,0L2.2,3.6l0,0.2L2,3.7z M3.3,3.7L3.1,3.8l0-0.2L3,3.4l0.2,0l0.1-0.2l0.1,0.2l0.2,0L3.5,3.6l0,0.2
	L3.3,3.7z M4.7,3.7L4.5,3.8l0-0.2L4.3,3.4l0.2,0l0.1-0.2l0.1,0.2l0.2,0L4.8,3.6l0,0.2L4.7,3.7z M6,3.7L5.8,3.8l0-0.2L5.7,3.4l0.2,0
	L6,3.2l0.1,0.2l0.2,0L6.2,3.6l0,0.2L6,3.7z"/>
<path class="st0" d="M6,3.7L5.8,3.8l0-0.2L5.7,3.4l0.2,0L6,3.2l0.1,0.2l0.2,0L6.2,3.6l0,0.2L6,3.7z M6.7,4.7L6.5,4.8l0-0.2L6.3,4.4
	l0.2,0l0.1-0.2l0.1,0.2l0.2,0L6.8,4.6l0,0.2L6.7,4.7z M1.3,4.7L1.1,4.8l0-0.2L1,4.4l0.2,0l0.1-0.2l0.1,0.2l0.2,0L1.5,4.6l0,0.2
	L1.3,4.7z M2.7,4.7L2.5,4.8l0-0.2L2.3,4.4l0.2,0l0.1-0.2l0.1,0.2l0.2,0L2.8,4.6l0,0.2L2.7,4.7z M4,4.7L3.8,4.8l0-0.2L3.7,4.4l0.2,0
	L4,4.2l0.1,0.2l0.2,0L4.2,4.6l0,0.2L4,4.7z M5.3,4.7L5.1,4.8l0-0.2L5,4.4l0.2,0l0.1-0.2l0.1,0.2l0.2,0L5.5,4.6l0,0.2L5.3,4.7z
	 M7.3,3.7L7.1,3.8l0-0.2L7,3.4l0.2,0l0.1-0.2l0.1,0.2l0.2,0L7.5,3.6l0,0.2L7.3,3.7z M0.7,5.7L0.5,5.8l0-0.2L0.3,5.4l0.2,0l0.1-0.2
	l0.1,0.2l0.2,0L0.8,5.6l0,0.2L0.7,5.7z M2,5.7L1.8,5.8l0-0.2L1.7,5.4l0.2,0L2,5.2l0.1,0.2l0.2,0L2.2,5.6l0,0.2L2,5.7z M3.3,5.7
	L3.1,5.8l0-0.2L3,5.4l0.2,0l0.1-0.2l0.1,0.2l0.2,0L3.5,5.6l0,0.2L3.3,5.7z M4.7,5.7L4.5,5.8l0-0.2L4.3,5.4l0.2,0l0.1-0.2l0.1,0.2
	l0.2,0L4.8,5.6l0,0.2L4.7,5.7z M6,5.7L5.8,5.8l0-0.2L5.7,5.4l0.2,0L6,5.2l0.1,0.2l0.2,0L6.2,5.6l0,0.2L6,5.7z"/>
<path class="st0" d="M6,5.7L5.8,5.8l0-0.2L5.7,5.4l0.2,0L6,5.2l0.1,0.2l0.2,0L6.2,5.6l0,0.2L6,5.7z M6.7,6.7L6.5,6.8l0-0.2L6.3,6.4
	l0.2,0l0.1-0.2l0.1,0.2l0.2,0L6.8,6.6l0,0.2L6.7,6.7z M1.3,6.7L1.1,6.8l0-0.2L1,6.4l0.2,0l0.1-0.2l0.1,0.2l0.2,0L1.5,6.6l0,0.2
	L1.3,6.7z M2.7,6.7L2.5,6.8l0-0.2L2.3,6.4l0.2,0l0.1-0.2l0.1,0.2l0.2,0L2.8,6.6l0,0.2L2.7,6.7z M4,6.7L3.8,6.8l0-0.2L3.7,6.4l0.2,0
	L4,6.2l0.1,0.2l0.2,0L4.2,6.6l0,0.2L4,6.7z M5.3,6.7L5.1,6.8l0-0.2L5,6.4l0.2,0l0.1-0.2l0.1,0.2l0.2,0L5.5,6.6l0,0.2L5.3,6.7z
	 M7.3,5.7L7.1,5.8l0-0.2L7,5.4l0.2,0l0.1-0.2l0.1,0.2l0.2,0L7.5,5.6l0,0.2L7.3,5.7z M0.7,7.7L0.5,7.8l0-0.2L0.3,7.4l0.2,0l0.1-0.2
	l0.1,0.2l0.2,0L0.8,7.6l0,0.2L0.7,7.7z M2,7.7L1.8,7.8l0-0.2L1.7,7.4l0.2,0L2,7.2l0.1,0.2l0.2,0L2.2,7.6l0,0.2L2,7.7z M3.3,7.7
	L3.1,7.8l0-0.2L3,7.4l0.2,0l0.1-0.2l0.1,0.2l0.2,0L3.5,7.6l0,0.2L3.3,7.7z M4.7,7.7L4.5,7.8l0-0.2L4.3,7.4l0.2,0l0.1-0.2l0.1,0.2
	l0.2,0L4.8,7.6l0,0.2L4.7,7.7z M6,7.7L5.8,7.8l0-0.2L5.7,7.4l0.2,0L6,7.2l0.1,0.2l0.2,0L6.2,7.6l0,0.2L6,7.7z"/>
<path class="st0" d="M6,7.7L5.8,7.8l0-0.2L5.7,7.4l0.2,0L6,7.2l0.1,0.2l0.2,0L6.2,7.6l0,0.2L6,7.7z M7.3,7.7L7.1,7.8l0-0.2L7,7.4
	l0.2,0l0.1-0.2l0.1,0.2l0.2,0L7.5,7.6l0,0.2L7.3,7.7z"/>
</svg>
