<?xml version="1.0" encoding="utf-8"?>
<!-- Generator: Adobe Illustrator 26.0.0, SVG Export Plug-In . SVG Version: 6.00 Build 0)  -->
<svg version="1.1" id="Layer_1" xmlns="http://www.w3.org/2000/svg" xmlns:xlink="http://www.w3.org/1999/xlink" x="0px" y="0px"
	 viewBox="0 0 16 16" style="enable-background:new 0 0 16 16;" xml:space="preserve">
<style type="text/css">
	.st0{fill:#FF4B55;}
	.st1{fill:#FFE15A;}
</style>
<path class="st0" d="M15.7,13.2H0.3c-0.1,0-0.3-0.1-0.3-0.3V3.1c0-0.1,0.1-0.3,0.3-0.3h15.4c0.1,0,0.3,0.1,0.3,0.3v9.9
	C16,13.2,15.9,13.2,15.7,13.2z"/>
<path class="st1" d="M8.1,4.9l0.7,2.2h2.3c0.1,0,0.2,0.1,0.1,0.2L9.4,8.7l0.7,2.2C10.2,11,10,11.1,9.9,11L8,9.7L6,11
	c-0.1,0.1-0.2,0-0.2-0.1l0.7-2.2L4.7,7.3c-0.1-0.1,0-0.2,0.1-0.2h2.3l0.7-2.2C7.9,4.8,8.1,4.8,8.1,4.9z"/>
</svg>
